HIERARCHY
ROOT Hips
{
	OFFSET 0.00000 0.00000 0.00000
	CHANNELS 6 Xposition Yposition Zposition Zrotation Yrotation Xrotation 
	JOINT LHipJoint
	{
		OFFSET 0 0 0
		CHANNELS 3 Zrotation Yrotation Xrotation
		JOINT LeftHip
		{
			OFFSET 1.36337 -1.57426 1.11036
			CHANNELS 3 Zrotation Yrotation Xrotation
			JOINT LeftKnee
			{
				OFFSET 2.38468 -6.55187 0.00000
				CHANNELS 3 Zrotation Yrotation Xrotation
				JOINT LeftAnkle
				{
					OFFSET 2.37166 -6.51609 0.00000
					CHANNELS 3 Zrotation Yrotation Xrotation
					JOINT LeftToe
					{
						OFFSET 0.29078 -0.79891 2.01393
						CHANNELS 3 Zrotation Yrotation Xrotation
						End Site
						{
							OFFSET 0.00000 -0.00000 1.07924
						}
					}
				}
			}
		}
	}
	JOINT RHipJoint
	{
		OFFSET 0 0 0
		CHANNELS 3 Zrotation Yrotation Xrotation
		JOINT RightHip
		{
			OFFSET -1.36349 -1.57426 1.11036
			CHANNELS 3 Zrotation Yrotation Xrotation
			JOINT RightKnee
			{
				OFFSET -2.29562 -6.30717 0.00000
				CHANNELS 3 Zrotation Yrotation Xrotation
				JOINT RightAnkle
				{
					OFFSET -2.40985 -6.62100 0.00000
					CHANNELS 3 Zrotation Yrotation Xrotation
					JOINT RightToe
					{
						OFFSET -0.23197 -0.63733 1.92232
						CHANNELS 3 Zrotation Yrotation Xrotation
						End Site
						{
							OFFSET -0.00000 -0.00000 1.01562
						}
					}
				}
			}
		}
	}
	JOINT lowerback
	{
		OFFSET 0 0 0
		CHANNELS 3 Zrotation Yrotation Xrotation
		JOINT Chest
		{
			OFFSET -0.08565 2.03602 -0.24562
			CHANNELS 3 Zrotation Yrotation Xrotation
			JOINT Chest2
			{
				OFFSET -0.00036 2.05693 0.00216
				CHANNELS 3 Zrotation Yrotation Xrotation
				JOINT lowerneck
				{
					OFFSET 0 0 0
					CHANNELS 3 Zrotation Yrotation Xrotation
					JOINT Neck
					{
						OFFSET -0.03664 1.69515 0.31789
						CHANNELS 3 Zrotation Yrotation Xrotation
						JOINT Head
						{
							OFFSET 0.00932 1.70181 -0.46013
							CHANNELS 3 Zrotation Yrotation Xrotation
							End Site
							{
								OFFSET 0.01243 1.77620 -0.19377
							}
						}
					}
				}
				JOINT LeftCollar
				{
					OFFSET 0 0 0
					CHANNELS 3 Zrotation Yrotation Xrotation
					JOINT LeftShoulder
					{
						OFFSET 3.74344 0.81315 -0.36647
CHANNELS 3 Zrotation Xrotation Yrotation
						JOINT LeftElbow
						{
OFFSET 0 -4.971850 -0.000000
CHANNELS 3 Zrotation Xrotation Yrotation
							JOINT LeftWrist
							{
OFFSET 0 -3.358110 0.000000
CHANNELS 3 Zrotation Xrotation Yrotation
								JOINT lhand
								{
									OFFSET 0 0 0
CHANNELS 3 Zrotation Xrotation Yrotation
									JOINT LFingers
									{
OFFSET 0 -0.622780 0.000000
CHANNELS 3 Zrotation Xrotation Yrotation
										End Site
										{
OFFSET 0 -0.502100 0.000000
										}
									}
								}
								JOINT LThumb
								{
OFFSET 0 0.000000 0.000000
CHANNELS 3 Zrotation Xrotation Yrotation
									End Site
									{
OFFSET 0 -0.509760 0.509760
									}
								}
							}
						}
					}
				}
				JOINT RightCollar
				{
					OFFSET 0 0 0
					CHANNELS 3 Zrotation Yrotation Xrotation
					JOINT RightShoulder
					{
						OFFSET -3.75385 0.50666 -0.06525
CHANNELS 3 Zrotation Xrotation Yrotation
						JOINT RightElbow
						{
OFFSET 0 -4.964930 -0.000000
CHANNELS 3 Zrotation Xrotation Yrotation
							JOINT RightWrist
							{
OFFSET 0 -3.349290 0.000000
CHANNELS 3 Zrotation Xrotation Yrotation
								JOINT rhand
								{
									OFFSET 0 0 0
CHANNELS 3 Zrotation Xrotation Yrotation
									JOINT RFingers
									{
OFFSET 0 -0.638040 0.000000
CHANNELS 3 Zrotation Xrotation Yrotation
										End Site
										{
OFFSET 0 -0.514410 0.000000
										}
									}
								}
								JOINT RThumb
								{
OFFSET 0 0.000000 0.000000
CHANNELS 3 Zrotation Xrotation Yrotation
									End Site
									{
OFFSET 0 -0.522260 0.522260
									}
								}
							}
						}
					}
				}
			}
		}
	}
}
MOTION
Frames: 9
Frame Time: 0.008333333333333333
-31.016000 16.099700 1.116600 69.722900 84.434500 69.246300 0.000000 0.000000 0.000000 -26.314700 -3.429100 -4.334600 2.755500 10.288300 29.915300 1.982600 6.920900 -29.815200 0.018500 0.878600 2.414800 0.000000 0.000000 0.000000 11.957000 -2.041800 -12.324400 -3.750600 -11.820900 35.101200 -1.949900 1.438900 -26.015500 -0.037400 -1.248300 3.432300 -8.845300 0.935500 0.735100 0.590200 1.512700 5.080200 5.631300 0.412600 4.676000 -4.742700 0.650600 -18.731200 2.450200 2.780500 34.187900 2.436800 1.232600 14.925200 -0.000000 0.000000 0.000000 0.599600 -1.248500 -8.752400 11.351200 -18.824500 1.887700 25.049300 20.414600 10.990200 0.000000 0.000000 0.000000 -7.125000 0.000000 0.000000 -1.439300 17.882900 -0.928100 -0.000000 0.000000 0.000000 -8.196700 2.426400 21.526800 -18.349600 -28.602600 -4.715400 -10.815500 -10.571900 29.583200 0.000000 0.000000 0.000000 7.125000 0.000000 -0.000000 22.723000 58.531300 -7.775200
-31.112670 16.134555 1.092069 5.931138 87.732968 6.252788 0.000000 0.000000 0.000000 -20.800333 -4.842974 -6.632230 3.331906 11.212183 33.000922 2.335280 5.887372 -31.425084 0.041814 1.316569 3.620382 0.000000 0.000000 0.000000 17.032999 -4.098563 -14.848818 -3.810968 -11.904399 35.394764 -1.547654 2.446549 -22.852984 -0.006444 -0.454378 1.248476 -4.289913 0.677886 1.867268 1.487738 0.962776 4.379959 3.957232 0.345701 3.381703 -3.780937 1.239816 -18.285933 1.812206 3.495732 33.787285 2.104687 1.574992 14.638042 0.000000 0.000000 0.000000 1.754607 -0.422714 -14.704010 12.750125 -20.919057 2.363988 10.984373 18.855430 9.923496 0.000000 0.000000 0.000000 -7.125000 0.000000 0.000000 -11.371419 19.953684 -6.943319 0.000000 0.000000 0.000000 -7.848915 3.347597 24.275458 -19.496641 -30.031037 -5.277152 -9.433532 -11.058126 28.790501 0.000000 0.000000 0.000000 7.125000 0.000000 0.000000 23.536777 57.509860 -7.485595
-31.193914 16.173417 1.072479 -68.851380 84.718424 -67.248969 0.000000 0.000000 0.000000 -14.695843 -5.296518 -9.473420 3.731731 11.794329 35.008508 2.395558 4.977250 -31.330497 0.009038 0.608440 1.671920 0.000000 0.000000 0.000000 22.188225 -5.603396 -18.479770 -4.111409 -12.306045 36.825068 -1.125824 3.308787 -19.222128 -0.077409 1.615420 -4.447682 0.533232 0.237818 2.034723 2.637497 0.350443 3.676704 2.415886 0.185312 2.622283 -3.361383 1.852164 -17.585792 1.350552 4.371310 33.344294 1.960533 1.949660 14.271742 0.000000 0.000000 0.000000 2.270191 0.333653 -24.485100 14.013108 -22.753137 2.833348 9.759229 -0.622481 2.742067 0.000000 0.000000 0.000000 -7.125000 0.000000 0.000000 -12.806048 27.137369 -5.741777 0.000000 0.000000 0.000000 -7.346158 3.357856 24.858268 -19.873906 -30.489975 -5.467319 -8.373274 -9.860068 28.436735 0.000000 0.000000 0.000000 7.125000 0.000000 0.000000 24.342013 56.966770 -7.438593
-31.201610 16.199239 1.048168 -59.369844 83.734283 -58.047297 0.000000 0.000000 0.000000 -14.381013 -5.031031 -9.108970 3.762526 11.837520 35.159601 2.424773 5.600471 -31.810737 0.034992 1.201515 3.303552 0.000000 0.000000 0.000000 21.529621 -6.526619 -20.466325 -4.650880 -12.979101 39.290915 -0.971847 5.610384 -17.600841 -0.897646 6.029147 -16.871579 1.045241 0.411766 2.650789 2.515530 0.604096 3.580382 1.995126 0.328262 2.173107 -2.871505 2.252916 -17.089029 0.636187 5.013836 32.986572 1.672087 2.198076 14.023470 0.000000 0.000000 0.000000 2.464003 -0.542419 -25.110446 14.000109 -22.734868 2.828153 12.122455 -3.255293 2.602070 0.000000 0.000000 0.000000 -7.125000 0.000000 0.000000 -11.057583 27.268665 -4.846657 0.000000 0.000000 0.000000 -6.977258 3.575254 25.229029 -20.260210 -30.954494 -5.664570 -6.936032 -10.056859 27.413681 0.000000 0.000000 0.000000 7.125000 0.000000 0.000000 25.039239 55.753444 -6.917899
-31.194582 16.190980 1.060618 -56.014860 83.391233 -55.011776 0.000000 0.000000 0.000000 -14.345895 -4.859209 -8.478776 3.696917 11.745748 34.838519 2.535797 5.669295 -32.492150 0.003429 0.361303 0.992755 0.000000 0.000000 0.000000 20.137701 -6.193158 -20.396814 -4.887318 -13.255751 40.333618 -0.930827 7.559088 -17.257441 -0.393077 4.008147 -11.101794 1.117595 0.392188 3.186201 2.536282 0.596315 3.428896 1.968932 0.326077 1.717566 -3.007235 2.493944 -17.470346 0.619897 5.490660 33.501486 1.794672 2.373435 14.325224 0.000000 0.000000 0.000000 2.298102 -0.584408 -28.117259 14.558869 -23.527981 3.047663 19.893667 -12.499443 3.304419 0.000000 0.000000 0.000000 -7.125000 0.000000 0.000000 -5.110667 26.459726 -2.306942 0.000000 0.000000 0.000000 -6.907769 3.756899 25.163608 -20.368162 -31.083333 -5.720262 -6.232314 -10.500161 27.307581 0.000000 0.000000 0.000000 7.125000 0.000000 0.000000 25.652366 55.520220 -6.955026
-31.154490 16.197750 1.099795 -57.061561 83.338315 -56.410606 0.000000 0.000000 0.000000 -14.227754 -5.082715 -7.616123 3.632798 11.654948 34.522101 2.489631 6.010461 -32.396702 0.006245 0.494930 1.360050 0.000000 0.000000 0.000000 18.921961 -5.732740 -19.003960 -4.554035 -12.861757 38.855636 -1.169082 4.368015 -19.479216 -0.325561 3.664410 -10.134681 1.342276 0.258270 3.078351 2.597805 0.419322 3.357890 1.909277 0.241363 1.710714 -2.768354 2.665257 -17.319830 0.350234 5.764936 33.516043 1.687990 2.488162 14.312142 0.000000 0.000000 0.000000 2.264597 -1.188858 -28.471492 14.387677 -23.286133 2.979681 22.715456 -14.759082 8.227740 0.000000 0.000000 0.000000 -7.125000 0.000000 0.000000 -3.060329 21.036858 -1.673488 0.000000 0.000000 0.000000 -6.724872 4.034728 24.523755 -20.262419 -30.957170 -5.665741 -6.540042 -10.133867 27.780537 0.000000 0.000000 0.000000 7.125000 0.000000 0.000000 25.682073 56.004364 -7.273566
-31.096631 16.220305 1.164584 -60.888391 83.443735 -60.006324 0.000000 0.000000 0.000000 -13.994255 -5.784864 -7.098684 3.526716 11.502393 33.993791 2.399086 6.761702 -32.264231 0.013457 0.750013 2.061221 0.000000 0.000000 0.000000 17.831301 -4.417211 -16.976665 -3.842590 -11.946487 35.544926 -1.349856 0.271550 -21.897217 -0.161130 2.567916 -7.078944 1.687051 0.039837 2.231503 2.765598 0.103798 3.150149 1.894849 0.087241 1.979462 -2.603284 2.838755 -17.464401 0.038033 6.100899 33.642986 1.599095 2.606299 14.417081 0.000000 0.000000 0.000000 2.217272 -1.605138 -29.195937 14.365145 -23.254241 2.970736 25.101836 -18.432561 13.563198 0.000000 0.000000 0.000000 -7.125000 0.000000 0.000000 -1.562936 15.065955 -1.103052 0.000000 0.000000 0.000000 -6.719665 4.141229 23.807242 -19.824623 -30.430479 -5.442293 -7.085276 -9.425448 28.260870 0.000000 0.000000 0.000000 7.125000 0.000000 0.000000 25.490036 56.544244 -7.554897
-31.017917 16.231168 1.262936 -62.448239 83.802227 -61.171974 0.000000 0.000000 0.000000 -13.978275 -6.344900 -6.776216 3.418937 11.344113 33.449598 2.387781 7.410408 -32.554677 0.005365 0.467037 1.283397 0.000000 0.000000 0.000000 16.668324 -2.377979 -14.449365 -3.040268 -10.757047 31.467742 -1.299283 -2.326052 -22.480364 -0.048775 1.416044 -3.894457 1.700161 -0.010120 1.061778 2.853980 -0.006584 2.901943 1.980128 0.028009 2.383394 -2.664764 2.913972 -17.539447 -0.161260 6.285514 33.453025 1.557085 2.651516 14.353204 0.000000 0.000000 0.000000 2.345096 -1.930198 -29.878360 15.329059 -24.602508 3.361753 22.378971 -18.734146 9.843404 0.000000 0.000000 0.000000 -7.125000 0.000000 0.000000 -3.279854 19.361482 -2.010108 0.000000 0.000000 0.000000 -6.736135 4.362343 22.847717 -19.266545 -29.748091 -5.162656 -7.153551 -8.882699 28.051328 0.000000 0.000000 0.000000 7.125000 0.000000 0.000000 25.272503 56.369918 -7.375657
-30.959474 16.247247 1.412944 -68.381572 84.752194 -66.018139 0.000000 0.000000 0.000000 -14.021514 -7.316523 -7.283947 3.306443 11.175281 32.873387 2.331425 7.428662 -32.229525 0.004320 0.370439 1.017906 0.000000 0.000000 0.000000 15.701137 0.467945 -12.397363 -2.401363 -9.653495 27.864071 -0.906839 -4.167004 -19.961823 -0.050318 1.393218 -3.832269 1.036272 -0.135387 -0.454274 2.821997 -0.214405 2.346585 2.314024 -0.096692 2.672330 -2.488557 2.976597 -17.598979 -0.457513 6.410517 33.281774 1.426511 2.688792 14.309223 0.000000 0.000000 0.000000 2.719493 -2.019997 -31.215726 15.418525 -24.725815 3.399164 22.606288 -20.024372 12.647037 0.000000 0.000000 0.000000 -7.125000 0.000000 0.000000 -3.226633 16.332463 -2.192815 0.000000 0.000000 0.000000 -6.528608 4.528718 21.819318 -18.464715 -28.747324 -4.771068 -6.906132 -8.274830 27.602251 0.000000 0.000000 0.000000 7.125000 0.000000 0.000000 25.199035 55.917237 -7.068784
